<?xml version="1.0" encoding="UTF-8"?>
<svg xmlns="http://www.w3.org/2000/svg" viewBox="0 0 300 300">
  <!-- Outer circle (beige/tan) -->
  <circle cx="150" cy="150" r="125" fill="#e6dbc0" />
  
  <!-- Compass rose (red/orange) -->
  <g fill="#ff5c41">
    <!-- Main compass points -->
    <polygon points="150,25 175,150 150,275 125,150" />
    <polygon points="25,150 150,125 275,150 150,175" />
    
    <!-- Diagonal compass points -->
    <polygon points="65,65 140,140 150,150 160,160 235,235" transform="rotate(45 150 150)" />
    <polygon points="65,65 140,140 150,150 160,160 235,235" transform="rotate(-45 150 150)" />
  </g>
  
  <!-- Center circle (white) -->
  <circle cx="150" cy="150" r="20" fill="#ffffff" />
  
  <!-- Center star (beige/gold) -->
  <path d="M150,138 L154,148 L164,148 L156,154 L159,164 L150,158 L141,164 L144,154 L136,148 L146,148 Z" fill="#e6dbc0" />
</svg> 